<svg height="400pt" preserveAspectRatio="xMidYMid meet" viewBox="0 0 400 400" width="400pt" xmlns="http://www.w3.org/2000/svg"><path d="m1887 3924c-1-1-36-5-78-8-255-19-575-126-814-271l-59-36-46 32c-25 17-64 45-87 62-24 17-45 28-47 26s11-49 29-104l33-100-56-50c-221-197-365-387-480-629-72-149-137-361-158-506-3-25-8-56-11-70-9-49-11-366-3-425 5-33 12-81 15-107 3-25 15-82 25-125s15-82 10-88c-5-5-42-35-84-65-41-30-73-57-70-59 2-3 50-6 105-6l100-2 33-75c172-396 460-716 831-925 111-62 318-147 411-168 10-2 46-11 79-19s78-17 100-20c23-4 50-8 61-10s56-7 99-11c44-3 83-11 87-18 4-6 17-42 29-80 19-58 25-68 43-65 16 2 26 19 44 73 13 39 26 73 30 76 4 4 39 10 77 13 65 6 157 19 215 31 14 3 41 8 60 11 19 4 41 12 49 18s17 10 20 9c27-12 246 72 390 148 285 152 513 363 701 650 59 90 139 244 165 319 14 40 33 45 162 45 40 0 73 3 73 8 0 4-4 7-8 7-5 0-18 8-29 18-11 9-46 35-77 57-61 43-60 39-37 135 5 25 12 59 15 75 3 17 8 39 10 51 23 116 24 453 0 589-54 313-170 584-364 845-30 41-62 82-70 91-8 8-38 40-66 70s-83 82-122 117c-64 57-70 66-62 88 5 13 8 24 5 24-2 0 7 32 21 71s23 76 22 81c-2 5-37-15-78-44-41-30-81-57-87-61-8-5-48 13-99 43-241 143-520 232-794 256-72 6-259 12-263 8zm318-157c11-3 41-8 67-11 153-21 415-112 551-191 42-25 77-47 77-49 0-6-514-379-802-582l-116-82-239 170c-379 272-661 477-668 488-11 17 149 104 280 153 103 38 109 40 122 43 6 1 27 7 45 13s44 12 58 15 61 11 105 20c44 8 96 17 115 19 49 4 381 0 405-6zm-1293-534c147-439 300-923 296-938-2-10-327-254-598-448-78-56-176-128-185-135-6-5-24-17-40-28-17-10-39-27-49-36-35-32-50-19-61 52-21 129-27 187-30 305-2 118 11 291 29 370 75 339 201 591 411 823 50 56 168 172 175 172 3 0 27-62 52-137zm2022 86c-8-24-17-51-19-59-6-30-285-873-290-878-3-3-482 344-502 364-16 16-6 24 422 335 358 260 398 289 403 284 1-1-5-22-14-46zm264-31c110-113 163-178 234-283 193-288 292-618 290-970 0-80-9-206-17-257-18-104-26-142-31-147-3-3-15 1-27 8-57 36-857 620-890 651-4 4-1 27 7 51 64 196 129 396 130 404 2 6 46 143 99 306 53 162 97 301 97 307 0 28 32 7 108-70zm-2135 50c34-24 656-475 745-541l53-39-118-87c-232-171-396-282-403-274-7 7-58 151-64 178-2 8-91 284-236 728-10 31-16 57-13 57s19-10 36-22zm1207-877c329-241 314-226 291-283-6-13-40-117-76-233-94-294-125-389-134-398-5-5-172-8-371-8-390 0-375-2-385 49-3 15-41 135-166 516-22 65-39 121-39 125 0 8 50 46 260 199 85 61 164 119 175 127 12 8 52 37 90 64l70 49 30-21c16-12 131-95 255-186zm-905-611c52-159 95-296 95-305 0-13-61-15-515-15-283 0-515 3-515 8 0 4 93 75 206 157 113 83 246 179 294 215 49 36 98 72 110 80s44 31 70 50 58 42 70 50c13 8 35 25 49 37 14 11 29 19 33 17 4-3 50-135 103-294zm1530 160c94-68 206-149 250-181s85-62 90-66c32-25 264-192 283-204 12-8 22-17 22-21s-234-8-519-8h-519l28 92c15 51 58 183 94 294 36 110 66 206 66 213 0 25 35 4 205-119zm-1387-619c12-8 333-981 348-1060l7-33-59 7c-136 15-217 32-349 74-156 50-262 100-434 206-103 64-283 226-382 345-118 142-294 445-267 461 14 9 1122 9 1136 0zm797-3c2-2-20-70-47-153-27-82-51-157-53-165s-52-163-113-345l-109-330-58 180c-31 99-61 189-66 200-4 11-35 103-68 205s-73 227-90 277c-43 133-44 127 9 133 44 5 591 3 595-2zm1292-2c8-8-99-215-153-297-67-103-126-173-238-284-119-118-162-153-276-227-185-120-459-230-632-252-18-3-33-5-33-6 0-2-27-6-103-14-63-7-64-7-57 16 18 58 89 279 105 328 10 30 68 209 130 397l111 342 92 3c150 5 1049-1 1054-6z" transform="matrix(.1 0 0 -.1 0 400)"/></svg>